Coordinates
version=1
nRows=16
nColumns=40
inDegrees=yes

Units are S.I. units (second, meters, Newtons, ...)
Angles are in degrees.

endheader
time	pelvis_tilt	pelvis_list	pelvis_rotation	pelvis_tx	pelvis_ty	pelvis_tz	hip_flexion_r	hip_adduction_r	hip_rotation_r	knee_angle_r	knee_angle_r_beta	ankle_angle_r	subtalar_angle_r	mtp_angle_r	hip_flexion_l	hip_adduction_l	hip_rotation_l	knee_angle_l	knee_angle_l_beta	ankle_angle_l	subtalar_angle_l	mtp_angle_l	lumbar_extension	lumbar_bending	lumbar_rotation	arm_flex_r	arm_add_r	arm_rot_r	elbow_flex_r	pro_sup_r	wrist_flex_r	wrist_dev_r	arm_flex_l	arm_add_l	arm_rot_l	elbow_flex_l	pro_sup_l	wrist_flex_l	wrist_dev_l
     16.48250000	     -2.33846628	     -3.82117365	      2.59696059	      1.03573857	      0.92759098	      0.47534581	      3.47110122	     -1.86672279	    -14.35800557	     27.05064084	     27.05064084	     18.44784727	      6.80716098	     -5.02945741	     22.70862786	     -4.97358490	     -1.18610161	     24.77248301	     24.77248301	      7.44555633	    -12.67934207	      2.59778216	    -10.17741487	      4.93822784	      2.49924732	     14.75556782	    -20.54368209	     -2.29115184	     55.74623459	     45.72461571	      0.00000000	      0.00000000	     -1.00398655	     -7.97506876	    -14.58601004	     34.08823523	     46.10510296	      0.00000000	      0.00000000
     16.49600000	     -2.35168505	     -3.75386554	      2.27596387	      1.03613313	      0.92789148	      0.47224146	      4.60525192	     -2.58160115	    -13.79159796	     29.74062537	     29.74062537	     17.80057625	      6.20997748	     -6.17751942	     22.28173322	     -4.78282322	     -1.44413215	     24.87655757	     24.87655757	      7.92233256	    -12.79558983	      2.55242779	    -10.17002237	      4.84073155	      2.60152472	     13.41664811	    -20.67267071	     -2.40550345	     54.08034804	     45.77872478	      0.00000000	      0.00000000	     -0.66375762	     -8.03692920	    -14.42419160	     34.66356597	     46.09174160	      0.00000000	      0.00000000
     16.50950000	     -2.35136796	     -3.76750341	      2.00128354	      1.03642853	      0.92812806	      0.46924747	      5.71776244	     -3.09892796	    -13.06928031	     32.11464682	     32.11464682	     15.10466123	      4.54127813	    -12.53870481	     21.90160782	     -4.66617195	     -1.63361388	     25.06398947	     25.06398947	      8.56888289	    -12.86316053	      2.90628033	    -10.13964956	      4.79308797	      2.17423625	     13.27202450	    -19.99878474	     -3.42441211	     49.80156420	     45.93759312	      0.00000000	      0.00000000	     -1.17704867	     -8.47879095	    -12.75129244	     36.64736937	     45.91387539	      0.00000000	      0.00000000
     16.52300000	     -2.21136123	     -3.67240026	      1.66229353	      1.03666767	      0.92847418	      0.46632925	      7.11134747	     -3.86876780	    -12.37161367	     35.45312682	     35.45312682	     14.11687765	      3.75082135	    -13.29595258	     21.28570767	     -4.46988812	     -1.95192612	     25.10928598	     25.10928598	      8.96972796	    -12.91622770	      2.72320676	    -10.36706790	      4.67074636	      2.16792402	     11.88592116	    -20.14934242	     -3.31588538	     48.85491416	     45.95631485	      0.00000000	      0.00000000	     -0.76538699	     -8.60480277	    -12.77212018	     37.11140765	     45.92681200	      0.00000000	      0.00000000
     16.53650000	     -2.19317542	     -3.59707126	      1.32698027	      1.03674172	      0.92852596	      0.46354720	      8.83563897	     -4.57238858	    -11.55326261	     39.01235754	     39.01235754	     12.71977117	      2.61226632	    -14.22782347	     20.83252704	     -4.28614707	     -2.25016149	     25.17627960	     25.17627960	      9.36060686	    -13.01695584	      2.51468709	    -10.43797305	      4.56158858	      2.25478782	     10.40280773	    -20.28541350	     -3.23537054	     47.61816831	     45.98625589	      0.00000000	      0.00000000	     -0.35705766	     -8.72192490	    -12.76868012	     37.75865906	     45.93756639	      0.00000000	      0.00000000
     16.55000000	     -2.18339123	     -3.67742304	      1.01326770	      1.03676092	      0.92856878	      0.46108127	     10.50612733	     -4.85981178	    -10.46917861	     42.08302805	     42.08302805	      9.30812841	     -0.28468295	    -19.68682820	     20.40668068	     -4.28377678	     -2.48361337	     25.22914853	     25.22914853	      9.61972408	    -13.13017196	      2.00014891	    -10.44276894	      4.56845771	      2.07202962	      9.93105127	    -19.85879100	     -3.77026080	     43.90613282	     46.11225830	      0.00000000	      0.00000000	     -0.78640349	     -9.16156532	    -11.66774636	     40.09963062	     45.85626119	      0.00000000	      0.00000000
     16.56350000	     -2.11775663	     -3.64051360	      0.73696196	      1.03665896	      0.92858166	      0.45855780	     12.39906396	     -5.39980235	     -9.65124468	     45.79224721	     45.79224721	      7.42830631	     -1.78494472	    -19.90620521	     19.94600328	     -4.14841433	     -2.73361560	     25.32208726	     25.32208726	      9.99333926	    -13.16461259	      1.77422132	    -10.56973304	      4.49579739	      2.11397781	      8.48772296	    -19.92151260	     -3.71830664	     42.71860307	     46.13712145	      0.00000000	      0.00000000	     -0.30126409	     -9.32644101	    -11.61135977	     40.75775310	     45.87010129	      0.00000000	      0.00000000
     16.57700000	     -1.91881964	     -3.50899562	      0.48682880	      1.03650656	      0.92874319	      0.45609217	     14.18142945	     -6.02968554	     -8.91510289	     49.44395736	     49.44395736	      5.49534625	     -3.05016528	    -19.82338458	     19.31829339	     -3.92288957	     -3.07264584	     25.36755302	     25.36755302	     10.38415727	    -13.12088658	      1.56248881	    -10.85867448	      4.34540522	      1.81759263	      7.25821442	    -19.80032390	     -3.68205623	     41.82872553	     46.15762642	      0.00000000	      0.00000000	      0.14958996	     -9.61323469	    -11.59827154	     41.22640152	     45.88129731	      0.00000000	      0.00000000
     16.59050000	     -1.92307408	     -3.58074501	      0.22300073	      1.03621304	      0.92873081	      0.45405217	     16.19899806	     -6.15789280	     -7.96274426	     52.86964623	     52.86964623	      3.43263716	     -5.12836678	    -19.04859220	     18.94671576	     -3.95220994	     -3.38552142	     25.43570507	     25.43570507	     10.75604910	    -12.97934166	      1.25201299	    -10.90010805	      4.38141501	      1.93856901	      5.89270927	    -19.71512211	     -3.78967174	     40.13915410	     46.21096813	      0.00000000	      0.00000000	      0.59989957	     -9.81461484	    -11.31547562	     42.24220075	     45.87358938	      0.00000000	      0.00000000
     16.60400000	     -1.77962311	     -3.45390471	     -0.00830455	      1.03593119	      0.92894530	      0.45193883	     17.99459541	     -6.60263773	     -7.30891735	     56.06902092	     56.06902092	      1.57160369	     -6.45842226	    -18.24309537	     18.34859211	     -3.75570761	     -3.76158538	     25.38931532	     25.38931532	     11.10608045	    -12.81484827	      1.04317697	    -11.12540714	      4.21121751	      1.57680887	      4.75787615	    -19.44809055	     -3.82631416	     39.16334640	     46.23883269	      0.00000000	      0.00000000	      1.03603345	    -10.17093013	    -11.18641331	     42.77798634	     45.87425747	      0.00000000	      0.00000000
     16.61750000	     -1.69435156	     -3.52709484	     -0.20642100	      1.03553199	      0.92919787	      0.45016865	     19.88654249	     -6.64957374	     -6.64839763	     59.22095086	     59.22095086	      1.26936516	     -7.08996773	    -13.01865868	     17.85481243	     -3.84040606	     -4.22116396	     25.38562622	     25.38562622	     11.46547402	    -12.30743898	      0.54092507	    -11.24716826	      4.24736926	      1.26740499	      4.44493488	    -18.76403685	     -5.25130216	     35.82619886	     46.40548625	      0.00000000	      0.00000000	      0.95401569	    -10.97824872	     -9.08180976	     44.61692023	     45.73592677	      0.00000000	      0.00000000
     16.63100000	     -1.58222025	     -3.43953482	     -0.36235524	      1.03511038	      0.92964412	      0.44832498	     21.47710335	     -6.90081978	     -6.20190203	     61.58974720	     61.58974720	     -0.17250933	     -8.28725474	    -12.30435639	     17.24220611	     -3.66637116	     -4.49207367	     25.19807734	     25.19807734	     11.75205364	    -12.14195740	      0.44165721	    -11.42914894	      4.12793271	      0.83560868	      3.22502375	    -18.49844561	     -5.24745277	     35.23308514	     46.41577637	      0.00000000	      0.00000000	      1.54571689	    -11.30996626	     -9.11743509	     44.95607450	     45.75454412	      0.00000000	      0.00000000
     16.64450000	     -1.53420067	     -3.56824523	     -0.57981339	      1.03461679	      0.93010630	      0.44695019	     23.12480001	     -6.72817330	     -5.73483279	     63.75995247	     63.75995247	     -0.05383520	     -8.82391496	     -7.89095243	     16.73115375	     -3.86810615	     -5.09755944	     25.09451215	     25.09451215	     12.16395452	    -11.31484746	      0.02567447	    -11.54395399	      4.22976462	      1.08489720	      1.92308957	    -18.20719409	     -6.02112142	     33.84057343	     46.47932844	      0.00000000	      0.00000000	      2.26140025	    -11.63023384	     -8.13205854	     45.74452582	     45.72202796	      0.00000000	      0.00000000
     16.65800000	     -1.51453529	     -3.54410864	     -0.75491440	      1.03405759	      0.93076116	      0.44550298	     24.53559031	     -6.74046258	     -5.44408583	     65.17038213	     65.17038213	     -0.69417286	     -9.75286956	     -7.16969792	     16.11131182	     -3.76733110	     -5.35788442	     24.68282568	     24.68282568	     12.37097818	    -11.10333343	      0.01914307	    -11.62599663	      4.18367097	      0.67912523	      0.86537750	    -17.85630145	     -6.08230173	     33.33581406	     46.48952605	      0.00000000	      0.00000000	      2.78820821	    -11.94227224	     -8.06749670	     46.06275638	     45.73331264	      0.00000000	      0.00000000
     16.67150000	     -1.46440019	     -3.66099269	     -0.92309159	      1.03352604	      0.93155702	      0.44439989	     25.77647141	     -6.52474765	     -5.28031282	     66.14617232	     66.14617232	     -0.39472303	    -10.17339930	     -4.79490327	     15.49613815	     -3.95286263	     -5.96472494	     24.37610732	     24.37610732	     12.68252219	    -10.23803097	     -0.31268541	    -11.76206456	      4.27389073	      0.79777594	     -0.42053841	    -17.51473945	     -6.59808044	     32.41684523	     46.52880513	      0.00000000	      0.00000000	      3.56413145	    -12.24550428	     -7.28250860	     46.78807985	     45.70966483	      0.00000000	      0.00000000
     16.68500000	     -1.52518931	     -3.66562577	     -1.05198570	      1.03285382	      0.93231231	      0.44327790	     26.93645439	     -6.47435202	     -5.27419703	     66.47965070	     66.47965070	     -0.42404533	    -10.61170435	     -4.53758755	     14.92109916	     -3.89014719	     -6.20091140	     23.86156862	     23.86156862	     12.83657712	     -9.93389616	     -0.30039628	    -11.73955555	      4.24634213	      0.25509052	     -1.31855309	    -17.09895656	     -6.61450626	     32.08448248	     46.53242933	      0.00000000	      0.00000000	      4.07125035	    -12.62177383	     -7.25452052	     47.03128351	     45.72027789	      0.00000000	      0.00000000
